<?xml version="1.0" encoding="UTF-8" standalone="no"?>
<!DOCTYPE svg PUBLIC "-//W3C//DTD SVG 1.1//EN" "http://www.w3.org/Graphics/SVG/1.1/DTD/svg11.dtd">
<svg width="100%" height="100%" viewBox="0 0 200 200" version="1.1" xmlns="http://www.w3.org/2000/svg" xmlns:xlink="http://www.w3.org/1999/xlink" xml:space="preserve" xmlns:serif="http://www.serif.com/" style="fill-rule:evenodd;clip-rule:evenodd;stroke-linejoin:round;stroke-miterlimit:2;">
    <g transform="matrix(1.40054,0,0,1.26048,-64.6744,-40.5352)">
        <path d="M160.127,59.749C160.127,56.64 159.016,53.658 157.037,51.459C155.058,49.261 152.375,48.025 149.576,48.025C133.222,48.025 101.937,48.025 85.583,48.025C82.785,48.025 80.101,49.261 78.122,51.459C76.143,53.658 75.032,56.64 75.032,59.749C75.032,86.592 75.032,152.262 75.032,179.105C75.032,182.214 76.143,185.196 78.122,187.394C80.101,189.593 82.785,190.828 85.583,190.828C101.937,190.828 133.222,190.828 149.576,190.828C152.375,190.828 155.058,189.593 157.037,187.394C159.016,185.196 160.127,182.214 160.127,179.105C160.127,152.262 160.127,86.592 160.127,59.749Z"/>
    </g>
    <g transform="matrix(1,0,0,1.26613,-0.44586,-3.70968)">
        <path d="M133.248,10.828C133.248,6.466 128.771,2.93 123.248,2.93C110.894,2.93 89.998,2.93 77.643,2.93C72.12,2.93 67.643,6.466 67.643,10.828C67.643,13.003 67.643,14.777 67.643,14.777L133.248,14.777L133.248,10.828Z"/>
    </g>
</svg>
